<?xml version="1.0" encoding="iso-8859-1"?>
<!-- Generator: Adobe Illustrator 19.0.0, SVG Export Plug-In . SVG Version: 6.00 Build 0)  -->
<svg version="1.1" id="Capa_1" xmlns="http://www.w3.org/2000/svg" xmlns:xlink="http://www.w3.org/1999/xlink" x="0px" y="0px"
	 viewBox="0 0 511.999 511.999" style="enable-background:new 0 0 511.999 511.999;" xml:space="preserve">
<path style="fill:#FFC599;" d="M130.509,255.909h24.6v-46.688h-24.6c-12.893,0-23.344,10.452-23.344,23.344l0,0
	C107.165,245.457,117.616,255.909,130.509,255.909z"/>
<path style="fill:#ED6161;" d="M357.71,193.488c-4.288,0-8.398,0.776-12.207,2.195c0,18.657,0,39.863,0,61.083v7.781
	c3.811,1.422,7.917,2.214,12.207,2.214c19.736,0,35.737-16.402,35.737-36.637C393.446,209.89,377.447,193.488,357.71,193.488z"/>
<path style="fill:#81EBC7;" d="M368.421,504.5H132.191c-3.314,0-6-2.686-6-6v-73.977c0-25.113,15.766-47.524,39.403-56.009
	l63.761-22.888c13.545-4.862,28.359-4.862,41.904,0l63.761,22.888c23.636,8.485,39.403,30.895,39.403,56.009V498.5
	C374.421,501.814,371.735,504.5,368.421,504.5z"/>
<path style="fill:#50B596;" d="M335.018,368.515l-63.761-22.888c-10.799-3.876-22.402-4.652-33.527-2.348
	c2.83,0.586,5.63,1.362,8.377,2.348l63.761,22.888c23.636,8.485,39.403,30.895,39.403,56.008V498.5c0,3.314-2.686,6-6,6h25.151
	c3.314,0,6-2.686,6-6v-73.977C374.421,399.41,358.655,377,335.018,368.515z"/>
<path style="fill:#E6EFF5;" d="M275.275,474.141V504.5h-49.938v-30.359c0-5.28,4.28-9.56,9.56-9.56h30.819
	C270.995,464.581,275.275,468.861,275.275,474.141z"/>
<path style="fill:#ED6161;" d="M193.922,376.661v24.814c0,9.378,10.813,14.627,18.18,8.826l38.203-30.077l38.203,30.077
	c7.368,5.801,18.18,0.552,18.18-8.826v-24.814c0-18.843-10.424-36.142-27.084-44.947l-7.522-3.975
	c-13.626-7.201-29.93-7.201-43.556,0l-7.522,3.975C204.345,340.519,193.922,357.818,193.922,376.661z"/>
<path style="fill:#F0B27D;" d="M218.047,296.575v58.305c0,17.815,14.443,32.258,32.258,32.258l0,0
	c17.815,0,32.258-14.443,32.258-32.258v-58.305H218.047z"/>
<path style="fill:#935D38;" d="M356.024,51.157c-1.229-0.829-1.16-2.654,0.127-3.391c3.019-1.73,7.944-4.538,12.25-6.925
	c2.613-1.449,2.764-5.137,0.294-6.819c-23.989-16.338-91.425-15.118-118.869-3.689c-1.71,0.712-3.393-1.06-2.57-2.719
	c3.769-7.604,7.867-18.466,2.05-20.005c-7.507-1.987-59.904,27.999-70.998,42.288c-15.571-5.228-36.166-1.655-46.838,3.363
	c-2.604,1.224-3.128,4.711-0.97,6.615c5.65,4.985,15.992,12.655,26.308,12.233c0,0-17.398,11.537-28.999,50.287
	s1.699,88.42,26.299,126.707h190.394c47.699-80.997,39.094-115.976,32.579-131.496c0,0,25.085,12.634,27.719,7.5
	C406.095,87.569,366.815,58.438,356.024,51.157z"/>
<path style="fill:#6D3E1F;" d="M356.024,51.157c-1.229-0.829-1.16-2.654,0.126-3.391c3.019-1.73,7.945-4.538,12.251-6.925
	c2.602-1.442,2.776-5.125,0.319-6.802c-14.158-9.662-43.494-13.19-70.796-12.104c18.979,0.857,36.933,4.655,46.778,12.087
	c2.228,1.682,2.092,5.37-0.266,6.819c-3.886,2.388-8.332,5.198-11.056,6.927c-1.215,0.772-1.28,2.514-0.127,3.376
	c9.712,7.26,45.189,36.403,44.02,73.961c-1.708,3.691-13.886-1.802-20.595-5.181c-1.568-0.79-3.328,0.666-2.821,2.347
	c5.272,17.5,8.19,53.099-30.98,126.83h21.625c47.699-80.997,39.094-115.976,32.579-131.496c0,0,25.085,12.634,27.719,7.5
	C406.095,87.57,366.816,58.439,356.024,51.157z"/>
<path style="fill:#F9C295;" d="M345.503,176.94v84.897c0,38.381-62.007,83.445-104.754,77.004
	c-38.281-5.698-85.64-43.346-85.64-77.004V187.64c4.37-20.499,21.389-50.988,31.609-66.378c1.74-2.617,3.285-4.795,4.537-6.413
	c0.897-1.159,2.704-0.984,3.353,0.33c0.969,1.962,2.17,3.846,3.5,5.624c4.562,6.092,10.641,10.959,14.148,13.503
	c1.25,0.906,3.008,0.12,3.165-1.415l1.237-12.088l0.855-8.399c0.154-1.516,1.877-2.31,3.129-1.441
	c3.012,2.092,8.249,5.679,14.616,9.84c13.676,8.947,32.553,20.548,45.712,25.649c1.192,0.462,2.492-0.314,2.689-1.577
	c1.279-8.209,1.875-17.369,2.148-24.072c0.061-1.53,0.106-2.933,0.139-4.167c0.05-1.862,2.387-2.652,3.554-1.2
	c1.226,1.525,2.705,3.365,4.317,5.367c0.18,0.22,0.36,0.44,0.53,0.66c5.367,6.663,12.014,14.894,15.755,19.434
	c1.045,1.268,3.099,0.807,3.487-0.789c0.455-1.875,0.71-3.92,0.818-6.075c0.21-4.1-0.12-8.62-0.61-13.18
	c-0.205-1.901-0.437-3.81-0.67-5.702c-0.242-1.962,2.214-3.059,3.497-1.555c2.332,2.733,4.716,5.867,7.073,9.337
	C333.073,136.772,342.003,156.021,345.503,176.94z"/>
<path style="fill:#E8A26A;" d="M323.694,122.932c-2.357-3.47-4.74-6.604-7.073-9.337c-1.283-1.504-3.739-0.407-3.497,1.555
	c0.233,1.892,0.465,3.801,0.67,5.702c0.49,4.56,0.82,9.08,0.61,13.18c-0.064,1.279-0.188,2.512-0.366,3.701
	c5.238,11.512,9.63,24.97,11.766,39.208v84.897c0,34.412-44.689,74.191-81.553,77.407c42.547,3.606,101.253-40.061,101.253-77.407
	V176.94C342.003,156.021,333.073,136.772,323.694,122.932z"/>
<path style="fill:#80B9F9;" d="M286.408,318.168h20.711c7.813,0,14.147-6.334,14.147-14.147l0,0c0-7.813-6.334-14.147-14.147-14.147
	h-20.711c-7.813,0-14.147,6.334-14.147,14.147l0,0C272.262,311.835,278.595,318.168,286.408,318.168z"/>
<path d="M367.313,50.041c1.588-0.895,3.195-1.795,4.715-2.636c3.521-1.95,5.732-5.512,5.917-9.529
	c0.185-4.026-1.696-7.785-5.028-10.051c-16.589-11.299-46.13-13.345-62.262-13.559c-19.123-0.256-37.929,1.744-52.12,5.377
	c2.002-7.017,1.09-10.756,0.015-13.128c-1.402-3.094-4.002-5.281-7.329-6.163c-2.425-0.638-8.854-2.335-39.858,15.824
	c-6.223,3.645-25.385,15.222-35.496,25.25c-16.261-3.747-35.674-0.553-47.571,5.043c-3.533,1.652-5.973,4.942-6.523,8.801
	c-0.55,3.845,0.862,7.671,3.766,10.225c4.371,3.861,10.08,8.112,16.484,10.932c-4.048,5.109-8.782,12.343-13.363,22.288
	c-1.732,3.762-0.087,8.217,3.675,9.95c3.762,1.733,8.217,0.087,9.95-3.674c9.124-19.809,18.651-26.621,18.674-26.638
	c2.804-1.861,4.025-5.363,2.986-8.564c-1.038-3.2-4.05-5.318-7.446-5.179c-4.499,0.198-10.317-2.186-16.412-6.634
	c9.658-3.044,24.29-4.844,35.841-0.972c3.021,1.012,6.354,0.006,8.309-2.512c8.474-10.917,45.058-32.558,59.629-38.151
	c-0.618,1.94-1.646,4.559-3.313,7.918c-1.789,3.578-1.185,7.779,1.542,10.704c2.737,2.937,6.902,3.838,10.62,2.294
	c24.408-10.168,81.694-11.18,106.56,0.098c-2.519,1.422-4.949,2.809-6.881,3.916c-2.856,1.651-4.629,4.604-4.743,7.898
	c-0.114,3.292,1.449,6.358,4.183,8.202c7.259,4.897,41.405,29.471,45.167,60.436c-4.354-1.366-10.648-3.956-16.554-6.906
	c-0.017-0.008-0.034-0.014-0.051-0.022c-0.201-0.099-0.404-0.188-0.611-0.267c-0.029-0.011-0.059-0.022-0.088-0.033
	c-0.202-0.074-0.405-0.14-0.612-0.197c-0.038-0.011-0.077-0.021-0.116-0.031c-0.197-0.051-0.395-0.093-0.594-0.127
	c-0.045-0.008-0.09-0.016-0.136-0.023c-0.197-0.03-0.394-0.052-0.592-0.067c-0.043-0.003-0.087-0.007-0.13-0.009
	c-0.207-0.011-0.413-0.014-0.62-0.009c-0.029,0.001-0.059,0.001-0.088,0.002c-0.225,0.009-0.448,0.028-0.672,0.056
	c-0.008,0.001-0.015,0.002-0.023,0.003c-1.394,0.183-2.744,0.759-3.882,1.73c-0.008,0.007-0.015,0.013-0.023,0.02
	c-0.097,0.083-0.197,0.161-0.29,0.25c-0.053,0.051-0.093,0.109-0.144,0.161c-0.173,0.175-0.339,0.36-0.496,0.554
	c-0.133,0.163-0.253,0.332-0.37,0.504c-0.08,0.118-0.158,0.237-0.232,0.36c-0.099,0.164-0.196,0.328-0.281,0.497
	c-0.002,0.004-0.005,0.008-0.007,0.012c-0.083,0.166-0.151,0.334-0.22,0.503c-0.091,0.222-0.172,0.446-0.24,0.674
	c-0.05,0.164-0.094,0.328-0.132,0.493c-0.032,0.142-0.067,0.282-0.091,0.425c-0.048,0.283-0.079,0.566-0.094,0.849
	c-0.007,0.126-0.005,0.251-0.005,0.377c0,0.214,0.008,0.427,0.026,0.639c0.01,0.118,0.014,0.235,0.029,0.353
	c0.037,0.282,0.094,0.56,0.162,0.835c0.033,0.134,0.072,0.267,0.113,0.399c0.067,0.219,0.145,0.434,0.232,0.646
	c0.03,0.073,0.047,0.151,0.08,0.223c2.874,6.865,11.119,27.271-6.411,72.658c-1.764,4.569-3.753,9.291-5.953,14.148
	c-1.524,3.365-3.151,6.795-4.88,10.288V176.94c0-0.416-0.034-0.831-0.104-1.241c-1.204-7.181-3.067-14.496-5.539-21.743
	c-4.268-12.493-10.305-24.676-17.465-35.243c-2.482-3.649-5.032-7.011-7.576-9.991c-2.743-3.212-7.183-4.221-11.053-2.51
	c-3.874,1.715-6.118,5.688-5.588,9.847c0.228,1.861,0.454,3.744,0.658,5.593c0.104,0.969,0.211,2.017,0.306,3.111
	c-2.579-3.19-4.958-6.144-6.413-7.951c-0.196-0.253-0.399-0.503-0.573-0.715l-4.325-5.376c-2.528-3.133-6.622-4.325-10.435-3.036
	c-3.81,1.289-6.342,4.722-6.448,8.704l-0.028,0.904c-0.031,0.987-0.064,2.062-0.109,3.196c-0.243,5.837-0.635,11.299-1.15,16.135
	c-11.922-5.655-26.687-14.825-37.805-22.102c-6.135-4.007-11.241-7.499-14.436-9.716c-2.744-1.91-6.334-2.233-9.374-0.843
	c-3.041,1.391-5.148,4.323-5.503,7.684l-1.032,10.177c-1.701-1.657-3.402-3.516-4.897-5.511c-1.141-1.527-2.078-3.027-2.78-4.447
	c-1.453-2.949-4.274-4.908-7.547-5.24c-3.284-0.333-6.443,1.022-8.466,3.627c-1.366,1.76-2.999,4.068-4.854,6.86
	c-9.167,13.805-27.797,45.983-32.695,68.963c-0.109,0.514-0.165,1.038-0.165,1.563v34.114c-1.603-3.444-3.115-6.926-4.51-10.45
	c-0.613-1.548-1.205-3.103-1.777-4.664c0-0.001-0.001-0.001-0.001-0.002c-0.001-0.002-0.001-0.004-0.002-0.005
	c-9.843-26.79-12.707-53.527-8.065-75.287c0.864-4.051-1.719-8.036-5.771-8.9c-4.04-0.864-8.034,1.719-8.899,5.77
	c-4.742,22.227-2.826,47.706,5.473,74.187c-13.923,2.975-24.397,15.368-24.397,30.165c0,8.247,3.212,15.992,9.03,21.796
	c5.817,5.832,13.566,9.043,21.818,9.043h17.153c0.997,27.938,28.336,55.601,57.099,70.826c-3.77,3.572-7.038,7.626-9.728,12.031
	c-1.609-0.244-3.309,0.027-4.833,0.896c-2.231,1.273-3.558,3.518-3.757,5.898l-23.391,8.398
	c-26.534,9.53-44.363,34.875-44.363,63.067v73.978c0,7.444,6.056,13.5,13.5,13.5h93.143h49.938h93.149c7.444,0,13.5-6.056,13.5-13.5
	v-73.978c0-28.19-17.832-53.535-44.374-63.067l-23.391-8.401c-0.199-2.377-1.523-4.62-3.751-5.892
	c-1.523-0.87-3.221-1.142-4.831-0.9c-2.688-4.406-5.955-8.46-9.724-12.031c4.992-2.601,9.867-5.556,14.592-8.821
	c7.838-1.214,14.299-6.647,16.982-13.898h11.834c18.535,0,34.665-11.904,40.138-29.625l5.354-17.367
	c9.863-8.095,16.191-20.5,16.191-34.393c0-15.703-7.963-29.832-20.777-37.735c10.23-28.94,10.568-48.735,8.546-61.481
	c5.331,1.926,9.674,2.887,13.142,2.887c4.714,0,7.818-1.767,9.619-5.266c0.506-0.984,0.789-2.068,0.826-3.174
	C413.505,90.283,383.832,62.645,367.313,50.041z M130.513,248.408c-4.239,0-8.217-1.646-11.213-4.649
	c-2.99-2.983-4.637-6.957-4.637-11.19c0-8.277,6.376-15.092,14.475-15.791c0.028,0.071,0.058,0.14,0.086,0.211
	c0.131,0.33,0.27,0.657,0.402,0.986c0.521,1.294,1.055,2.584,1.602,3.869c0.221,0.519,0.447,1.036,0.672,1.553
	c0.503,1.153,1.016,2.302,1.54,3.447c0.216,0.472,0.429,0.946,0.649,1.417c0.734,1.574,1.482,3.141,2.256,4.697
	c0.057,0.114,0.117,0.226,0.173,0.34c0.722,1.446,1.463,2.882,2.218,4.311c0.255,0.483,0.516,0.963,0.774,1.444
	c0.591,1.099,1.192,2.192,1.803,3.281c0.273,0.487,0.545,0.975,0.823,1.46c0.753,1.316,1.519,2.625,2.3,3.926
	c0.12,0.2,0.236,0.403,0.357,0.603c0.017,0.029,0.034,0.057,0.051,0.086h-14.331V248.408z M231.757,344.703
	c0.017,0.004,0.034,0.008,0.05,0.012c2.646,0.642,5.259,1.165,7.824,1.547c3.104,0.467,6.321,0.699,9.637,0.699
	c2.226,0,4.497-0.111,6.802-0.319c6.284-0.478,12.594-1.711,18.997-3.713v11.956c0,6.612-2.576,12.829-7.254,17.506
	c-0.404,0.404-0.82,0.792-1.247,1.165c-2.993,2.611-6.556,4.463-10.415,5.394c-3.763,0.921-7.909,0.925-11.707-0.004
	c-11.126-2.699-18.896-12.593-18.896-24.061v-11.872c1.561,0.484,3.116,0.907,4.667,1.3
	C230.732,344.447,231.245,344.578,231.757,344.703z M307.12,310.668h-20.712c-3.665,0-6.646-2.981-6.646-6.646
	s2.981-6.647,6.646-6.647h20.712c3.665,0,6.646,2.982,6.646,6.647S310.785,310.668,307.12,310.668z M299.186,376.664v24.809
	c0,2.112-1.471,3.054-2.104,3.361c-0.633,0.306-2.28,0.879-3.937-0.424l-20.836-16.405c0.625-0.416,1.234-0.854,1.836-1.306
	c0.165-0.124,0.325-0.253,0.488-0.38c0.497-0.385,0.985-0.782,1.464-1.191c0.179-0.153,0.358-0.304,0.534-0.46
	c0.61-0.54,1.211-1.092,1.79-1.671c7.51-7.511,11.646-17.494,11.646-28.112v-4.773C295.866,357.619,299.186,366.972,299.186,376.664
	z M250.308,437.296l-18.72-32.788l13.063-10.282c1.864,0.266,3.755,0.417,5.659,0.417c1.906,0,3.797-0.151,5.658-0.417
	l13.062,10.285L250.308,437.296z M201.42,376.664c0-9.688,3.324-19.042,9.13-26.553v4.774c0,0.76,0.029,1.514,0.071,2.264
	c0.011,0.192,0.023,0.383,0.037,0.574c0.05,0.71,0.113,1.417,0.2,2.117c0.005,0.04,0.008,0.08,0.013,0.119
	c0.093,0.733,0.212,1.459,0.345,2.18c0.034,0.187,0.07,0.372,0.107,0.558c0.13,0.656,0.273,1.309,0.435,1.954
	c0.017,0.069,0.031,0.139,0.049,0.208c0.18,0.701,0.384,1.393,0.601,2.08c0.056,0.177,0.114,0.353,0.172,0.529
	c0.202,0.61,0.417,1.214,0.647,1.811c0.033,0.086,0.063,0.173,0.096,0.258c0.262,0.665,0.546,1.32,0.843,1.968
	c0.075,0.163,0.152,0.325,0.229,0.487c0.269,0.568,0.55,1.129,0.846,1.681c0.049,0.091,0.094,0.184,0.144,0.275
	c0.341,0.626,0.701,1.241,1.075,1.847c0.088,0.143,0.179,0.284,0.269,0.426c0.335,0.529,0.682,1.05,1.042,1.562
	c0.062,0.089,0.121,0.179,0.184,0.267c0.417,0.583,0.851,1.153,1.299,1.712c0.095,0.119,0.193,0.235,0.289,0.353
	c0.403,0.492,0.816,0.974,1.242,1.446c0.071,0.079,0.14,0.16,0.212,0.238c0.491,0.535,0.997,1.055,1.517,1.562
	c0.095,0.093,0.192,0.183,0.288,0.275c0.47,0.45,0.951,0.888,1.444,1.315c0.078,0.068,0.154,0.137,0.232,0.204
	c0.561,0.478,1.136,0.94,1.724,1.387c0.091,0.069,0.184,0.135,0.275,0.204c0.534,0.399,1.08,0.785,1.635,1.158
	c0.058,0.039,0.112,0.082,0.17,0.12l-20.821,16.389c-1.658,1.304-3.306,0.731-3.938,0.425c-0.633-0.307-2.104-1.25-2.104-3.361
	v-24.812H201.42z M133.693,424.523c0-21.881,13.838-41.554,34.433-48.949l18.842-6.764c-0.358,2.589-0.547,5.213-0.547,7.856v24.809
	c0,7.236,4.043,13.695,10.552,16.854c2.628,1.276,5.43,1.903,8.211,1.903c4.105,0,8.167-1.368,11.556-4.035l2.933-2.309
	l23.134,40.518v2.676h-7.909c-9.407,0-17.06,7.653-17.06,17.059V497h-84.143L133.693,424.523L133.693,424.523z M232.836,497v-22.859
	c0-1.136,0.925-2.06,2.061-2.06h15.341c0.023,0,0.045,0.003,0.068,0.003c0.023,0,0.045-0.003,0.068-0.003h15.342
	c1.136,0,2.061,0.924,2.061,2.06V497H232.836z M366.924,424.523V497h-84.149v-22.859c0-9.407-7.653-17.059-17.06-17.059h-7.91
	v-2.665l23.138-40.524l2.927,2.304c3.389,2.667,7.449,4.034,11.555,4.034c2.781,0,5.584-0.628,8.212-1.904
	c6.508-3.16,10.551-9.618,10.551-16.853v-24.809c0-2.644-0.189-5.268-0.547-7.858l18.84,6.766
	C353.083,382.972,366.924,402.643,366.924,424.523z M365.066,277.467c-3.519,11.394-13.889,19.047-25.805,19.047h-11.84
	c-3.059-8.246-11.005-14.139-20.301-14.139h-20.712c-11.936,0-21.645,9.711-21.645,21.646c0,9.913,6.701,18.284,15.809,20.839
	c-0.272,0.115-0.544,0.24-0.816,0.352l-0.294,0.119c-0.271,0.111-0.541,0.221-0.815,0.325c-0.037,0.014-0.074,0.029-0.11,0.043
	c-7.928,3.168-15.607,5.145-22.763,5.904c-7.295,0.651-14.522,0.038-21.93-1.847c-3.85-1.013-7.816-2.343-11.881-4.006
	c-0.132-0.052-0.269-0.11-0.404-0.165c-0.199-0.081-0.398-0.16-0.594-0.243c-0.002-0.001-0.005-0.001-0.007-0.002
	s-0.003-0.001-0.005-0.002c-15.121-6.346-30.034-16.65-40.915-28.271c-11.237-12.001-17.425-24.513-17.425-35.231v-5.93v-6.81
	v-60.644c4.312-19.041,20.081-47.456,29.996-62.498c5.161,6.669,11.729,11.871,15.215,14.393c2.732,2.004,6.354,2.396,9.451,1.025
	c3.104-1.374,5.252-4.325,5.607-7.716l1.158-11.293c2.155,1.448,4.547,3.037,7.112,4.713c13.851,9.068,33.265,21.003,47.114,26.37
	c2.684,1.038,5.655,0.808,8.148-0.63c2.506-1.444,4.202-3.915,4.655-6.791c0.677-4.335,1.224-9.238,1.637-14.652
	c3.757,4.655,8.551,10.579,11.614,14.298c2.308,2.789,5.932,4.021,9.458,3.209c3.519-0.807,6.236-3.483,7.104-7.023
	c0.544-2.273,0.877-4.708,1.017-7.443c0.004-0.083,0.008-0.165,0.012-0.248c3.714,6.355,7.854,14.67,11.259,24.633
	c2.139,6.273,3.766,12.585,4.839,18.773v69.813v14.45c0,3.577-0.696,7.411-2.07,11.396c-1.35,3.916,0.73,8.185,4.646,9.535
	c3.919,1.352,8.185-0.73,9.535-4.646c0.501-1.454,0.934-2.903,1.306-4.343c2.076,0.313,4.172,0.479,6.283,0.479
	c2.952,0,5.836-0.305,8.623-0.883L365.066,277.467z M357.706,259.258c-1.579,0-3.149-0.137-4.7-0.409v-9.439
	c0.102-0.176,0.197-0.348,0.299-0.524c0.961-1.665,1.908-3.323,2.832-4.969c0.089-0.159,0.175-0.316,0.264-0.474
	c0.872-1.556,1.724-3.102,2.563-4.641c0.156-0.287,0.314-0.574,0.469-0.86c0.871-1.606,1.723-3.203,2.558-4.789
	c0.162-0.307,0.32-0.613,0.48-0.919c0.805-1.54,1.596-3.072,2.366-4.591c0.052-0.102,0.105-0.205,0.157-0.307
	c0.797-1.577,1.57-3.14,2.33-4.695c0.164-0.335,0.327-0.671,0.489-1.005c0.74-1.527,1.465-3.045,2.167-4.55
	c0.104-0.223,0.204-0.443,0.307-0.665c0.64-1.378,1.263-2.746,1.87-4.104c0.122-0.272,0.246-0.546,0.366-0.817
	c0.651-1.466,1.281-2.919,1.895-4.362c0.056-0.132,0.118-0.268,0.174-0.399c7.064,5.398,11.354,13.959,11.354,23.389
	C385.945,246.191,373.276,259.258,357.706,259.258z"/>
<path d="M271.435,255.882c-11.72,11.356-30.077,11.357-41.795,0c-2.976-2.883-7.724-2.808-10.605,0.166
	c-2.883,2.975-2.809,7.723,0.166,10.605c8.787,8.516,20.06,12.772,31.336,12.772c11.274,0,22.551-4.258,31.337-12.772
	c2.975-2.882,3.049-7.63,0.166-10.605C279.159,253.074,274.411,252.999,271.435,255.882z"/>
<path d="M304.987,197.221c-6.047,0-11.902,2.75-16.065,7.545c-2.716,3.127-2.382,7.865,0.746,10.581
	c3.125,2.715,7.863,2.382,10.58-0.746c1.332-1.535,3.016-2.38,4.74-2.38c1.724,0,3.407,0.845,4.739,2.38
	c1.483,1.708,3.568,2.583,5.666,2.583c1.743,0,3.495-0.604,4.914-1.837c3.128-2.716,3.462-7.453,0.746-10.581
	C316.888,199.971,311.033,197.221,304.987,197.221z"/>
<path d="M195.626,197.221c-6.047,0-11.902,2.75-16.065,7.545c-2.716,3.127-2.382,7.865,0.746,10.581
	c3.126,2.715,7.863,2.382,10.58-0.746c1.332-1.535,3.016-2.38,4.74-2.38c1.724,0,3.407,0.845,4.739,2.38
	c1.483,1.708,3.568,2.583,5.666,2.583c1.743,0,3.495-0.604,4.914-1.837c3.128-2.716,3.462-7.453,0.746-10.581
	C207.526,199.971,201.671,197.221,195.626,197.221z"/>
<g>
</g>
<g>
</g>
<g>
</g>
<g>
</g>
<g>
</g>
<g>
</g>
<g>
</g>
<g>
</g>
<g>
</g>
<g>
</g>
<g>
</g>
<g>
</g>
<g>
</g>
<g>
</g>
<g>
</g>
</svg>
