<svg height="511pt" viewBox="-79 0 511 511.99982" width="511pt" xmlns="http://www.w3.org/2000/svg"><path d="m219.917969 369.175781c0 12.972657-7.691407 23.480469-17.1875 23.480469h-50.339844c-9.492187 0-17.191406-10.507812-17.191406-23.480469v-87.222656c0-12.96875 7.699219-23.480469 17.191406-23.480469h50.339844c9.496093 0 17.1875 10.511719 17.1875 23.480469zm0 0" fill="#ffd0c6"/><path d="m353.652344 476.851562-23.296875-97.617187c-7.3125-24.117187-31.886719-54.621094-71.222657-54.621094h-39.199218l-.058594.089844c-20.175781 30.136719-64.5625 30.089844-84.671875-.089844h-39.394531c-39.335938 0-61.167969 26.632813-71.226563 54.621094l-23.292969 97.621094c-4.28125 17.9375 9.414063 35.144531 27.972657 35.144531h296.417969c18.554687 0 32.253906-17.207031 27.972656-35.148438zm0 0" fill="#5bb7d9"/><path d="m353.652344 476.851562-23.296875-97.617187c-7.3125-24.113281-31.886719-54.621094-71.222657-54.621094h-39.199218l-.019532.03125c38.601563.640625 62.742188 30.734375 69.980469 54.589844l23.292969 97.617187c4.28125 17.941407-9.414062 35.148438-27.972656 35.148438h40.464844c18.554687 0 32.253906-17.207031 27.972656-35.148438zm0 0" fill="#489bc8"/><path d="m278.195312 138.34375c-1.273437-.128906-2.542968.058594-3.785156.519531-5.191406-63.867187-37.832031-113.007812-96.9375-113.007812-59.109375 0-91.746094 49.140625-96.941406 113.007812-1.242188-.460937-2.511719-.648437-3.785156-.519531-8.351563.851562-13.765625 14.84375-12.089844 31.253906 1.679688 16.417969 9.816406 29.027344 18.167969 28.179688.230469-.027344.457031-.0625.683593-.105469 10.277344 52.855469 41.820313 91.105469 93.964844 91.105469 52.144532 0 83.6875-38.25 93.960938-91.105469.226562.042969.457031.082031.6875.105469 8.351562.847656 16.488281-11.761719 18.164062-28.179688 1.679688-16.410156-3.738281-30.402344-12.089844-31.253906zm0 0" fill="#fee2d8"/><path d="m299.898438 64.875c-18.03125-16.78125-29.625-2.582031-29.625-20.652344 0-18.074218-19.324219-19.367187-37.261719-20.65625-17.941407-1.289062-28.4375-7.746094-38.742188-18.074218-10.304687-10.324219-32.203125-5.164063-42.507812 7.746093-10.308594 12.910157-25.765625 2.582031-46.375 4.773438-20.613281 2.191406-28.339844 15.882812-32.203125 33.953125-3.867188 18.074218-14.171875 7.746094-34.78125 34.855468-20.613282 27.109376-15.460938 54.21875 7.726562 70.492188 11.363282 7.976562-2.550781 24.128906 9.019532 53.433594 6.441406 16.316406 33.492187 32.984375 54.101562 33.566406l36.070312-23.238281s33.492188-2.582031 59.253907 7.746093c25.765625 10.328126 19.324219 34.851563 34.78125 25.816407 15.457031-9.035157 38.058593-12.90625 51.234375-43.890625 8.933594-21.007813 31.210937-23.234375 22.191406-46.472656-9.015625-23.234376-6.441406-22.285157 9.019531-44.75 15.457031-22.464844-3.867187-37.867188-21.902343-54.648438zm0 0" fill="#7f8194"/><path d="m299.898438 64.875c-18.03125-16.78125-29.625-2.582031-29.625-20.652344 0-18.074218-19.324219-19.367187-37.261719-20.65625-17.941407-1.289062-28.4375-7.746094-38.742188-18.074218-10.304687-10.324219-32.203125-5.164063-42.507812 7.746093-7.175781 8.988281-16.851563 6.714844-29.019531 5.242188 5.875 2.734375 12.628906 4.480469 21.027343 5.085937 17.9375 1.289063 37.261719 2.582032 37.261719 20.652344 0 18.074219 11.59375 3.875 29.628906 20.65625 18.03125 16.78125 37.355469 32.183594 21.898438 54.648438-15.457032 22.464843-18.035156 21.511718-9.019532 44.75 9.019532 23.238281-13.257812 25.460937-22.191406 46.472656-2.402344 5.648437-5.121094 10.390625-8.046875 14.433594 3.835938.984374 7.632813 2.179687 11.273438 3.640624 25.765625 10.328126 19.324219 34.851563 34.78125 25.816407 15.460937-9.035157 38.058593-12.90625 51.234375-43.890625 8.933594-21.007813 31.210937-23.234375 22.191406-46.472656-9.015625-23.234376-6.4375-22.285157 9.019531-44.75 15.457031-22.464844-3.867187-37.867188-21.902343-54.648438zm0 0" fill="#6e7081"/><path d="m278.195312 138.34375c-1.273437-.128906-2.542968.058594-3.785156.519531-.65625-8.070312-1.753906-15.90625-3.285156-23.4375l-15.023438 10.121094s-10.304687-11.617187-34.78125-9.035156c-24.472656 2.582031-16.746093 11.617187-43.765624 5.164062-27.019532-6.453125-24.507813 0-40.535157 14.808594-16.03125 14.8125-22.617187 3.261719-43.226562-8.183594-4.703125-2.613281-8.320313-4.570312-11.246094-5.957031-.882813 5.375-1.558594 10.886719-2.015625 16.519531-1.242188-.464843-2.511719-.652343-3.785156-.519531-8.351563.847656-13.769532 14.84375-12.089844 31.253906 1.675781 16.417969 9.8125 29.027344 18.164062 28.175782.234376-.023438.460938-.058594.6875-.101563 10.273438 52.855469 41.820313 91.105469 93.964844 91.105469 52.140625 0 83.683594-38.25 93.960938-91.105469.226562.042969.453125.078125.6875.101563 8.351562.851562 16.488281-11.757813 18.164062-28.175782 1.679688-16.410156-3.738281-30.402344-12.089844-31.253906zm0 0" fill="#fee2d8"/><path d="m278.195312 138.34375c-1.273437-.128906-2.542968.058594-3.785156.519531-.65625-8.070312-1.753906-15.90625-3.285156-23.4375l-15.023438 10.121094s-7.421874-8.359375-24.621093-9.316406c13.484375 66.082031-11.519531 147.195312-71.742188 170.941406 5.621094 1.046875 11.527344 1.605469 17.734375 1.605469 52.140625 0 83.683594-38.25 93.960938-91.105469.226562.042969.453125.078125.6875.101563 8.351562.851562 16.488281-11.757813 18.164062-28.175782 1.679688-16.410156-3.738281-30.402344-12.089844-31.253906zm0 0" fill="#ffd0c6"/><g fill="#489bc8"><path d="m187.914062 372.539062c0-6.335937-5.128906-11.472656-11.449218-11.472656-6.324219 0-11.453125 5.136719-11.453125 11.472656 0 6.339844 5.128906 11.476563 11.453125 11.476563 6.320312 0 11.449218-5.136719 11.449218-11.476563zm0 0"/><path d="m187.914062 411.132812c0-6.335937-5.128906-11.472656-11.449218-11.472656-6.324219 0-11.453125 5.136719-11.453125 11.472656 0 6.339844 5.128906 11.476563 11.453125 11.476563 6.320312 0 11.449218-5.136719 11.449218-11.476563zm0 0"/></g></svg>