<svg height="512pt" viewBox="-61 0 511 512" width="512pt" xmlns="http://www.w3.org/2000/svg"><path d="m367.164062 439.421875v-210.996094h-344.046874v210.996094c0 8.949219 7.253906 16.199219 16.199218 16.199219h311.648438c8.949218 0 16.199218-7.25 16.199218-16.199219zm0 0" fill="#916754"/><path d="m37.574219 512c0-87.023438 70.546875-157.566406 157.570312-157.566406 87.019531 0 157.566407 70.542968 157.566407 157.566406zm0 0" fill="#4a5359"/><path d="m136.71875 345.96875h116.847656v96.53125h-116.847656zm0 0" fill="#363f44"/><path d="m215.519531 355.742188c-6.671875-.863282-13.472656-1.308594-20.375-1.308594-87.023437 0-157.570312 70.542968-157.570312 157.566406h40.753906c0-80.117188 59.792969-146.265625 137.191406-156.257812zm0 0" fill="#363f44"/><path d="m136.71875 335.878906v50.46875c9.054688 7.648438 24.949219 19.335938 58.421875 19.335938 33.476563 0 49.539063-11.03125 58.425781-19.335938v-50.46875zm0 0" fill="#e8e9ea"/><path d="m195.144531 335.878906h-58.425781v50.46875c9.054688 7.648438 24.949219 19.335938 58.425781 19.335938zm0 0" fill="#d0d1d2"/><path d="m107.925781 512h174.433594l11.332031-122.9375c-12.050781-9.671875-25.546875-17.613281-40.121094-23.433594h-.003906l-10.863281 49.496094c-2.097656 9.542969-10.550781 16.339844-20.320313 16.339844h-54.480468c-9.769532 0-18.222656-6.796875-20.316406-16.339844l-10.867188-49.496094h-.003906c-14.574219 5.820313-28.070313 13.761719-40.121094 23.433594zm0 0" fill="#f2f3f3"/><path d="m100.496094 431.382812c10.515625-17.625 24.375-33.027343 40.707031-45.328124l-4.484375-20.425782h-.003906c-.003906 0-.007813.003906-.011719.003906-1.761719.703126-3.507813 1.441407-5.234375 2.207032-.085938.039062-.175781.074218-.261719.113281-1.742187.777344-3.46875 1.578125-5.179687 2.414063-.035156.019531-.074219.039062-.113282.058593-3.464843 1.699219-6.859374 3.519531-10.179687 5.460938-.023437.015625-.050781.03125-.074219.046875-3.332031 1.949218-6.585937 4.019531-9.757812 6.203125-.003906.003906-.011719.007812-.015625.011719-3.183594 2.191406-6.285157 4.5-9.292969 6.914062zm0 0" fill="#e8e9ea"/><path d="m389.785156 220.699219c0 18.511719-15.007812 33.519531-33.519531 33.519531-18.515625 0-33.523437-15.007812-33.523437-33.519531s15.007812-33.519531 33.523437-33.519531c18.511719 0 33.519531 15.007812 33.519531 33.519531zm0 0" fill="#ddc1a5"/><path d="m67.539062 220.699219c0 18.511719-15.007812 33.519531-33.519531 33.519531s-33.519531-15.007812-33.519531-33.519531 15.007812-33.519531 33.519531-33.519531 33.519531 15.007812 33.519531 33.519531zm0 0" fill="#ddc1a5"/><path d="m364.238281 211.289062c0 93.390626-75.707031 169.097657-169.097656 169.097657s-169.097656-75.707031-169.097656-169.097657c0-93.390624 75.707031-169.097656 169.097656-169.097656s169.097656 75.707032 169.097656 169.097656zm0 0" fill="#f5d7b7"/><path d="m217.964844 43.730469c-3.628906-.492188-7.292969-.867188-10.992188-1.121094-.289062-.019531-.578125-.035156-.867187-.054687-1.457031-.09375-2.921875-.167969-4.390625-.222657-.429688-.019531-.855469-.035156-1.285156-.050781-1.753907-.054688-3.515626-.089844-5.285157-.089844-93.390625 0-169.097656 75.707032-169.097656 169.097656 0 1.121094.015625 2.238282.039063 3.351563 1.785156 91.84375 76.785156 165.746094 169.054687 165.746094 7.742187 0 15.359375-.53125 22.824219-1.535157-82.59375-11.148437-146.277344-81.914062-146.277344-167.5625 0-11.191406 1.097656-22.125 3.171875-32.707031 5.03125-6.027343 9.890625-12.777343 14.386719-20.34375l6.140625 19.792969c4.570312 14.734375 18.003906 24.628906 33.425781 24.628906h132.65625c15.425781 0 28.859375-9.894531 33.429688-24.628906l6.121093-19.742188c19.421875 32.769532 45.582031 50.339844 63.101563 59.074219.070312-2.015625.117187-4.039062.117187-6.074219 0-85.648437-63.679687-156.414062-146.273437-167.558593zm0 0" fill="#e9ccae"/><path d="m387.40625 208.386719c-1.554688-104.863281-87.027344-189.398438-192.265625-189.398438-105.230469 0-190.707031 84.53125-192.261719 189.390625 1.550782-.417968 67.71875-18.824218 88.667969-100.5l20.1875 65.082032c2.320313 7.484374 9.246094 12.582031 17.078125 12.582031h132.65625c7.835938 0 14.757812-5.097657 17.078125-12.582031l20.1875-65.082032c21.136719 82.390625 88.261719 100.398438 88.671875 100.507813zm0 0" fill="#a2735e"/><path d="m215.746094 20.089844c-6.769532-.722656-13.640625-1.101563-20.605469-1.101563-105.230469 0-190.707031 84.53125-192.261719 189.390625.855469-.230468 21.402344-5.953125 43.167969-24.765625 12.453125-86.394531 82.328125-154.214843 169.699219-163.523437zm0 0" fill="#916754"/><path d="m195.140625 18.988281c-58.238281 0-110.417969 25.902344-145.679687 66.800781 1.535156 8.117188 5.019531 16.015626 10.425781 23.429688l4.628906 6.347656h24.871094c.765625-2.5 1.488281-5.058594 2.160156-7.6875l2.386719 7.6875h202.417968l2.382813-7.6875c.675781 2.628906 1.398437 5.1875 2.160156 7.6875h17.019531c4.9375 0 9.574219-2.359375 12.484376-6.347656 5.40625-7.414062 8.886718-15.3125 10.421874-23.429688-35.257812-40.898437-87.4375-66.800781-145.679687-66.800781zm0 0" fill="#916754"/><path d="m195.140625 0c-86.277344 0-155.679687 54.976562-122.769531 100.113281h245.542968c32.910157-45.136719-36.496093-100.113281-122.773437-100.113281zm0 0" fill="#f2f3f3"/><path d="m215.683594 1.050781c-6.707032-.6875-13.570313-1.050781-20.542969-1.050781-86.277344 0-155.679687 54.976562-122.769531 100.113281h41.082031c-30.25-41.488281 25.945313-91.285156 102.230469-99.0625zm0 0" fill="#e8e9ea"/><path d="m187.414062.148438v99.964843h15.453126v-99.964843c-2.558594-.0937505-5.132813-.148438-7.726563-.148438-2.589844 0-5.164063.0546875-7.726563.148438zm0 0" fill="#e8e9ea"/><path d="m143.984375 100.113281h16.445313l-32.226563-88.492187c-4.96875 1.832031-9.722656 3.855468-14.25 6.035156zm0 0" fill="#e8e9ea"/><path d="m128.203125 11.621094c-1.195313.441406-2.378906.894531-3.550781 1.359375-.207032.082031-.410156.164062-.617188.246093-.996094.402344-1.988281.804688-2.964844 1.21875-.152343.0625-.300781.128907-.453124.191407-1.058594.453125-2.105469.910156-3.144532 1.378906-.058594.023437-.117187.054687-.179687.082031-1.125.507813-2.238281 1.027344-3.339844 1.558594l8.25 22.652344c3.679687-3.734375 7.878906-7.316406 12.554687-10.691406zm0 0" fill="#d0d1d2"/><path d="m229.855469 100.113281h16.445312l30.027344-82.457031c-4.523437-2.179688-9.277344-4.203125-14.246094-6.035156zm0 0" fill="#e8e9ea"/><g fill="#4a5359"><path d="m195.140625 257.199219c-9.777344 0-18.882813-5.273438-23.765625-13.757813-2.066406-3.589844-.828125-8.175781 2.761719-10.242187 3.589843-2.0625 8.175781-.828125 10.242187 2.761719 2.210938 3.847656 6.335938 6.234374 10.761719 6.234374 4.429687 0 8.550781-2.386718 10.761719-6.234374 2.066406-3.589844 6.652344-4.824219 10.242187-2.761719 3.589844 2.0625 4.828125 6.648437 2.761719 10.238281-4.878906 8.488281-13.984375 13.761719-23.765625 13.761719zm0 0"/><path d="m260.753906 227.035156c-4.144531 0-7.5-3.355468-7.5-7.5v-11.695312c0-4.144532 3.355469-7.5 7.5-7.5 4.144532 0 7.5 3.355468 7.5 7.5v11.695312c0 4.144532-3.359375 7.5-7.5 7.5zm0 0"/><path d="m129.53125 227.035156c-4.144531 0-7.5-3.355468-7.5-7.5v-11.695312c0-4.144532 3.355469-7.5 7.5-7.5 4.140625 0 7.5 3.355468 7.5 7.5v11.695312c0 4.144532-3.359375 7.5-7.5 7.5zm0 0"/></g><path d="m266.601562 249.148438h-11.695312c-4.144531 0-7.5-3.355469-7.5-7.5 0-4.140626 3.355469-7.5 7.5-7.5h11.695312c4.144532 0 7.5 3.359374 7.5 7.5 0 4.144531-3.355468 7.5-7.5 7.5zm0 0" fill="#f27f6f"/><path d="m135.378906 249.148438h-11.699218c-4.140626 0-7.5-3.355469-7.5-7.5 0-4.140626 3.359374-7.5 7.5-7.5h11.699218c4.144532 0 7.5 3.359374 7.5 7.5 0 4.144531-3.355468 7.5-7.5 7.5zm0 0" fill="#f27f6f"/></svg>